<?xml version="1.0" encoding="utf-8"?>
<!-- Generator: Adobe Illustrator 18.0.0, SVG Export Plug-In . SVG Version: 6.00 Build 0)  -->
<!DOCTYPE svg PUBLIC "-//W3C//DTD SVG 1.1//EN" "http://www.w3.org/Graphics/SVG/1.1/DTD/svg11.dtd">
<svg version="1.1" id="Layer_1" xmlns="http://www.w3.org/2000/svg" xmlns:xlink="http://www.w3.org/1999/xlink" x="0px" y="0px"
	 viewBox="0 0 20 20" enable-background="new 0 0 20 20" xml:space="preserve">
<title>trash</title>
<path fill="#ECECEC" d="M3.4,7.1L4.5,18c0.1,0.5,2.3,2,5.5,2c3.2,0,5.5-1.5,5.5-2l1.1-10.9c-1.7,0.9-4.2,1.4-6.6,1.4
	C7.6,8.5,5.1,8.1,3.4,7.1z M13.2,1.5l-0.9-1C12,0.1,11.6,0,10.9,0H9.1C8.4,0,8,0.1,7.7,0.6l-0.9,1C4.3,2,2.4,3.2,2.4,4v0.2
	C2.4,5.7,5.8,7,10,7c4.2,0,7.6-1.3,7.6-2.8V4C17.6,3.2,15.7,2,13.2,1.5z M12.1,4.3L11,3H9L7.9,4.3H6.2c0,0,1.9-2.2,2.1-2.5
	C8.5,1.6,8.7,1.5,9,1.5h2c0.3,0,0.4,0.1,0.6,0.3c0.2,0.3,2.1,2.5,2.1,2.5S12.1,4.3,12.1,4.3z"/>
</svg>
